<mxfile host="app.diagrams.net" agent="Mozilla/5.0 (Macintosh; Intel Mac OS X 10_15_7) AppleWebKit/605.1.15 (KHTML, like Gecko) Version/18.5 Safari/605.1.15" version="27.2.0">
  <diagram name="Page-1" id="3d5ieY1HVNCdDVrNjReb">
    <mxGraphModel dx="2066" dy="1220" grid="1" gridSize="10" guides="1" tooltips="1" connect="1" arrows="1" fold="1" page="1" pageScale="1" pageWidth="850" pageHeight="1100" math="0" shadow="0">
      <root>
        <mxCell id="0" />
        <mxCell id="1" parent="0" />
        <mxCell id="Cd-wzYS1qQRpog2RJw5J-16" style="edgeStyle=orthogonalEdgeStyle;rounded=0;orthogonalLoop=1;jettySize=auto;html=1;exitX=0.5;exitY=0;exitDx=0;exitDy=0;entryX=1;entryY=0.5;entryDx=0;entryDy=0;endSize=10;endArrow=diamond;endFill=1;" edge="1" parent="1" source="Cd-wzYS1qQRpog2RJw5J-1" target="Cd-wzYS1qQRpog2RJw5J-8">
          <mxGeometry relative="1" as="geometry" />
        </mxCell>
        <mxCell id="Cd-wzYS1qQRpog2RJw5J-1" value="&lt;p style=&quot;margin:0px;margin-top:4px;text-align:center;&quot;&gt;&lt;i&gt;&amp;lt;&amp;lt;Interface&amp;gt;&amp;gt;&lt;/i&gt;&lt;br&gt;&lt;b&gt;Repository&amp;lt;T&amp;gt;&lt;/b&gt;&lt;/p&gt;&lt;hr size=&quot;1&quot; style=&quot;border-style:solid;&quot;&gt;&lt;p style=&quot;margin:0px;margin-left:4px;&quot;&gt;+ save(entries: List&amp;lt;Entry&amp;gt;) : T&lt;/p&gt;&lt;p style=&quot;margin:0px;margin-left:4px;&quot;&gt;+ load() : T&lt;/p&gt;&lt;p style=&quot;margin:0px;margin-left:4px;&quot;&gt;+ deleteAllFiles() : boolean&lt;/p&gt;" style="verticalAlign=top;align=left;overflow=fill;html=1;whiteSpace=wrap;rounded=1;arcSize=6;" vertex="1" parent="1">
          <mxGeometry x="365" y="440" width="170" height="90" as="geometry" />
        </mxCell>
        <mxCell id="Cd-wzYS1qQRpog2RJw5J-2" value="&lt;p style=&quot;margin:0px;margin-top:4px;text-align:center;&quot;&gt;&lt;i&gt;&amp;lt;&amp;lt;Interface&amp;gt;&amp;gt;&lt;/i&gt;&lt;br&gt;&lt;b&gt;FileManager&lt;/b&gt;&lt;/p&gt;&lt;hr size=&quot;1&quot; style=&quot;border-style:solid;&quot;&gt;&lt;p style=&quot;margin:0px;margin-left:4px;&quot;&gt;+ getDataFile() : Path&lt;/p&gt;&lt;p style=&quot;margin:0px;margin-left:4px;&quot;&gt;+ createBackup() : void&lt;/p&gt;&lt;p style=&quot;margin:0px;margin-left:4px;&quot;&gt;+ restoreFromBackup() : void&lt;/p&gt;&lt;p style=&quot;margin:0px;margin-left:4px;&quot;&gt;+ deleteAll() : &amp;nbsp;boolean&lt;/p&gt;" style="verticalAlign=top;align=left;overflow=fill;html=1;whiteSpace=wrap;rounded=1;arcSize=6;" vertex="1" parent="1">
          <mxGeometry x="575" y="440" width="170" height="105" as="geometry" />
        </mxCell>
        <mxCell id="Cd-wzYS1qQRpog2RJw5J-3" value="&lt;p style=&quot;margin:0px;margin-top:4px;text-align:center;&quot;&gt;&lt;i&gt;&amp;lt;&amp;lt;Interface&amp;gt;&amp;gt;&lt;/i&gt;&lt;br&gt;&lt;b&gt;LeaderBoard&lt;/b&gt;&lt;/p&gt;&lt;hr size=&quot;1&quot; style=&quot;border-style:solid;&quot;&gt;&lt;p style=&quot;margin:0px;margin-left:4px;&quot;&gt;+ getTopScores(): List&amp;lt;Entry&amp;gt;&lt;br&gt;+ getTopScore(): Integer&lt;/p&gt;&lt;p style=&quot;margin:0px;margin-left:4px;&quot;&gt;+ addEntry(entry: Entry): Boolean&lt;/p&gt;&lt;p style=&quot;margin:0px;margin-left:4px;&quot;&gt;+ save(): Boolean&lt;/p&gt;" style="verticalAlign=top;align=left;overflow=fill;html=1;whiteSpace=wrap;rounded=1;arcSize=6;" vertex="1" parent="1">
          <mxGeometry x="135" y="430" width="190" height="110" as="geometry" />
        </mxCell>
        <mxCell id="Cd-wzYS1qQRpog2RJw5J-5" value="&lt;p style=&quot;margin:0px;margin-top:4px;text-align:center;&quot;&gt;&lt;i&gt;&amp;lt;&amp;lt;Interface&amp;gt;&amp;gt;&lt;/i&gt;&lt;br&gt;&lt;b&gt;Entry&lt;/b&gt;&lt;/p&gt;&lt;hr size=&quot;1&quot; style=&quot;border-style:solid;&quot;&gt;&lt;p style=&quot;margin:0px;margin-left:4px;&quot;&gt;+ name() : String&lt;/p&gt;&lt;p style=&quot;margin:0px;margin-left:4px;&quot;&gt;+ score() : int&lt;/p&gt;" style="verticalAlign=top;align=left;overflow=fill;html=1;whiteSpace=wrap;rounded=1;arcSize=6;" vertex="1" parent="1">
          <mxGeometry x="180" y="603" width="100" height="80" as="geometry" />
        </mxCell>
        <mxCell id="Cd-wzYS1qQRpog2RJw5J-7" style="edgeStyle=orthogonalEdgeStyle;rounded=0;orthogonalLoop=1;jettySize=auto;html=1;exitX=0.5;exitY=0;exitDx=0;exitDy=0;entryX=0.5;entryY=1;entryDx=0;entryDy=0;endSize=10;endArrow=block;endFill=0;dashed=1;" edge="1" parent="1" source="Cd-wzYS1qQRpog2RJw5J-6" target="Cd-wzYS1qQRpog2RJw5J-5">
          <mxGeometry relative="1" as="geometry" />
        </mxCell>
        <mxCell id="Cd-wzYS1qQRpog2RJw5J-6" value="&lt;p style=&quot;margin:0px;margin-top:4px;text-align:center;&quot;&gt;&lt;br&gt;&lt;b&gt;ScoreEntry&lt;/b&gt;&lt;/p&gt;&lt;p style=&quot;margin:0px;margin-top:4px;text-align:center;&quot;&gt;&lt;b&gt;&lt;br&gt;&lt;/b&gt;&lt;/p&gt;" style="verticalAlign=top;align=left;overflow=fill;html=1;whiteSpace=wrap;rounded=1;arcSize=13;" vertex="1" parent="1">
          <mxGeometry x="162.5" y="735" width="135" height="50" as="geometry" />
        </mxCell>
        <mxCell id="Cd-wzYS1qQRpog2RJw5J-9" style="edgeStyle=orthogonalEdgeStyle;rounded=0;orthogonalLoop=1;jettySize=auto;html=1;exitX=0.5;exitY=1;exitDx=0;exitDy=0;entryX=0.5;entryY=0;entryDx=0;entryDy=0;endSize=10;dashed=1;endArrow=block;endFill=0;" edge="1" parent="1" source="Cd-wzYS1qQRpog2RJw5J-8" target="Cd-wzYS1qQRpog2RJw5J-3">
          <mxGeometry relative="1" as="geometry" />
        </mxCell>
        <mxCell id="Cd-wzYS1qQRpog2RJw5J-10" style="edgeStyle=orthogonalEdgeStyle;rounded=0;orthogonalLoop=1;jettySize=auto;html=1;exitX=0;exitY=0.5;exitDx=0;exitDy=0;entryX=0;entryY=0.5;entryDx=0;entryDy=0;dashed=1;endArrow=open;endFill=0;endSize=10;" edge="1" parent="1" source="Cd-wzYS1qQRpog2RJw5J-8" target="Cd-wzYS1qQRpog2RJw5J-5">
          <mxGeometry relative="1" as="geometry">
            <Array as="points">
              <mxPoint x="105" y="360" />
              <mxPoint x="105" y="643" />
            </Array>
          </mxGeometry>
        </mxCell>
        <mxCell id="Cd-wzYS1qQRpog2RJw5J-13" value="manages" style="edgeLabel;html=1;align=center;verticalAlign=middle;resizable=0;points=[];" vertex="1" connectable="0" parent="Cd-wzYS1qQRpog2RJw5J-10">
          <mxGeometry x="-0.0468" y="-2" relative="1" as="geometry">
            <mxPoint y="1" as="offset" />
          </mxGeometry>
        </mxCell>
        <mxCell id="Cd-wzYS1qQRpog2RJw5J-8" value="&lt;p style=&quot;margin:0px;margin-top:4px;text-align:center;&quot;&gt;&lt;br&gt;&lt;b&gt;GameLeaderBoard&lt;/b&gt;&lt;/p&gt;&lt;p style=&quot;margin:0px;margin-top:4px;text-align:center;&quot;&gt;&lt;b&gt;&lt;br&gt;&lt;/b&gt;&lt;/p&gt;" style="verticalAlign=top;align=left;overflow=fill;html=1;whiteSpace=wrap;rounded=1;arcSize=13;" vertex="1" parent="1">
          <mxGeometry x="162.5" y="315" width="135" height="50" as="geometry" />
        </mxCell>
        <mxCell id="Cd-wzYS1qQRpog2RJw5J-15" style="edgeStyle=orthogonalEdgeStyle;rounded=0;orthogonalLoop=1;jettySize=auto;html=1;exitX=0.5;exitY=0;exitDx=0;exitDy=0;entryX=0.5;entryY=1;entryDx=0;entryDy=0;endSize=10;endArrow=block;endFill=0;dashed=1;" edge="1" parent="1" source="Cd-wzYS1qQRpog2RJw5J-14" target="Cd-wzYS1qQRpog2RJw5J-1">
          <mxGeometry relative="1" as="geometry" />
        </mxCell>
        <mxCell id="Cd-wzYS1qQRpog2RJw5J-14" value="&lt;p style=&quot;margin:0px;margin-top:4px;text-align:center;&quot;&gt;&lt;br&gt;&lt;b&gt;ScoreRepository&lt;/b&gt;&lt;/p&gt;&lt;p style=&quot;margin:0px;margin-top:4px;text-align:center;&quot;&gt;&lt;b&gt;&lt;br&gt;&lt;/b&gt;&lt;/p&gt;" style="verticalAlign=top;align=left;overflow=fill;html=1;whiteSpace=wrap;rounded=1;arcSize=13;" vertex="1" parent="1">
          <mxGeometry x="383" y="618" width="135" height="50" as="geometry" />
        </mxCell>
        <mxCell id="Cd-wzYS1qQRpog2RJw5J-18" style="edgeStyle=orthogonalEdgeStyle;rounded=0;orthogonalLoop=1;jettySize=auto;html=1;exitX=0.5;exitY=0;exitDx=0;exitDy=0;entryX=0.5;entryY=1;entryDx=0;entryDy=0;endArrow=block;endFill=0;endSize=10;dashed=1;" edge="1" parent="1" source="Cd-wzYS1qQRpog2RJw5J-17" target="Cd-wzYS1qQRpog2RJw5J-2">
          <mxGeometry relative="1" as="geometry" />
        </mxCell>
        <mxCell id="Cd-wzYS1qQRpog2RJw5J-19" style="edgeStyle=orthogonalEdgeStyle;rounded=0;orthogonalLoop=1;jettySize=auto;html=1;exitX=0;exitY=0.5;exitDx=0;exitDy=0;entryX=1;entryY=0.5;entryDx=0;entryDy=0;endSize=10;endArrow=diamond;endFill=1;" edge="1" parent="1" source="Cd-wzYS1qQRpog2RJw5J-17" target="Cd-wzYS1qQRpog2RJw5J-14">
          <mxGeometry relative="1" as="geometry" />
        </mxCell>
        <mxCell id="Cd-wzYS1qQRpog2RJw5J-17" value="&lt;p style=&quot;margin:0px;margin-top:4px;text-align:center;&quot;&gt;&lt;br&gt;&lt;b&gt;ScoreFileManager&lt;/b&gt;&lt;/p&gt;&lt;p style=&quot;margin:0px;margin-top:4px;text-align:center;&quot;&gt;&lt;b&gt;&lt;br&gt;&lt;/b&gt;&lt;/p&gt;" style="verticalAlign=top;align=left;overflow=fill;html=1;whiteSpace=wrap;rounded=1;arcSize=13;" vertex="1" parent="1">
          <mxGeometry x="592.5" y="618" width="135" height="50" as="geometry" />
        </mxCell>
      </root>
    </mxGraphModel>
  </diagram>
</mxfile>
